<svg width="111" height="40" viewBox="0 0 111 40" fill="none" xmlns="http://www.w3.org/2000/svg">
<path d="M47.7294 30.5455L49.7286 25.7172L44.9804 13.9882H47.8657L51.0691 22.5515L54.3179 13.9882H57.135L50.4102 30.5455H47.7294ZM57.703 19.9097C57.703 18.1636 58.2558 16.6946 59.3615 15.5028C60.4671 14.3109 61.8757 13.7149 63.5872 13.7149C65.2078 13.7149 66.499 14.1742 67.4607 15.0928C68.4225 16.0114 68.9943 17.0704 69.176 18.2699H66.4043C66.2377 17.617 65.9007 17.0932 65.3933 16.6984C64.8859 16.3037 64.2763 16.1063 63.5644 16.1063C62.6103 16.1063 61.8454 16.4593 61.2698 17.1653C60.6943 17.8713 60.4065 18.7861 60.4065 19.9097C60.4065 21.0332 60.6943 21.9442 61.2698 22.6426C61.8454 23.341 62.6103 23.6903 63.5644 23.6903C64.2763 23.6903 64.8859 23.4929 65.3933 23.0981C65.9007 22.7034 66.2377 22.1795 66.4043 21.5267H69.176C68.9943 22.7261 68.4225 23.7851 67.4607 24.7037C66.499 25.6223 65.2078 26.0816 63.5872 26.0816C61.8757 26.0816 60.4671 25.4857 59.3615 24.2938C58.2558 23.1019 57.703 21.6405 57.703 19.9097ZM76.6733 26.0816C74.8557 26.0816 73.3828 25.4819 72.2544 24.2824C71.1261 23.0829 70.5619 21.6254 70.5619 19.9097C70.5619 18.194 71.1261 16.7326 72.2544 15.5255C73.3828 14.3185 74.8557 13.7149 76.6733 13.7149C78.5059 13.7149 79.9864 14.3185 81.1148 15.5255C82.2432 16.7326 82.8074 18.194 82.8074 19.9097C82.8074 21.6254 82.2432 23.0829 81.1148 24.2824C79.9864 25.4819 78.5059 26.0816 76.6733 26.0816ZM73.2654 19.9097C73.2654 21.0332 73.5873 21.9442 74.231 22.6426C74.8747 23.341 75.6888 23.6903 76.6733 23.6903C77.6729 23.6903 78.4946 23.341 79.1383 22.6426C79.782 21.9442 80.1038 21.0332 80.1038 19.9097C80.1038 18.7709 79.782 17.8523 79.1383 17.1539C78.4946 16.4555 77.6729 16.1063 76.6733 16.1063C75.6888 16.1063 74.8747 16.4555 74.231 17.1539C73.5873 17.8523 73.2654 18.7709 73.2654 19.9097ZM93.7579 15.5369V8.72727H96.4614V25.8083H93.9623V24.123C93.1596 25.4287 91.8344 26.0816 89.9865 26.0816C88.3053 26.0816 86.9763 25.4933 85.9994 24.3166C85.0225 23.1399 84.534 21.6709 84.534 19.9097C84.534 18.1484 85.0225 16.6757 85.9994 15.4914C86.9763 14.3071 88.3053 13.7149 89.9865 13.7149C91.698 13.7149 92.9551 14.3223 93.7579 15.5369ZM93.8715 19.9097C93.8715 18.8013 93.5723 17.8903 92.9741 17.1767C92.3758 16.4631 91.5693 16.1063 90.5545 16.1063C89.5549 16.1063 88.7522 16.4631 88.1463 17.1767C87.5405 17.8903 87.2375 18.8013 87.2375 19.9097C87.2375 20.9877 87.5405 21.8873 88.1463 22.6085C88.7522 23.3297 89.5549 23.6903 90.5545 23.6903C91.5693 23.6903 92.3758 23.3335 92.9741 22.6199C93.5723 21.9062 93.8715 21.0028 93.8715 19.9097ZM17.1861 0V9.64598L8.31919 14.7847L19.1421 21.0516L36.2745 11.115V20.77L3.99946 39.4904L3.95875 39.514L3.91409 39.4855L0 36.9972V27.5967L3.94857 29.8649L10.7032 25.9469L0 19.6072V9.967L17.1861 0ZM104.845 13.7149C106.571 13.7149 107.969 14.2957 109.036 15.4572C110.104 16.6187 110.638 18.0801 110.638 19.8413L110.615 20.684H101.641C101.747 21.6254 102.088 22.3731 102.664 22.9273C103.239 23.4815 103.997 23.7586 104.936 23.7586C105.557 23.7586 106.117 23.6068 106.617 23.3031C107.117 22.9994 107.473 22.5895 107.685 22.0733H110.411C110.047 23.2727 109.37 24.2407 108.377 24.977C107.385 25.7134 106.215 26.0816 104.867 26.0816C103.11 26.0816 101.691 25.4971 100.608 24.328C99.5247 23.1588 98.9832 21.6785 98.9832 19.8869C98.9832 18.1408 99.5285 16.6757 100.619 15.4914C101.709 14.3071 103.118 13.7149 104.845 13.7149ZM104.845 15.9241C103.997 15.9241 103.292 16.1746 102.732 16.6756C102.218 17.1349 101.883 17.7346 101.725 18.4745L101.687 18.6798H107.957C107.836 17.8447 107.503 17.1767 106.958 16.6756C106.412 16.1746 105.708 15.9241 104.845 15.9241Z" fill="black"/>
</svg>
